<svg width="141" height="72" viewBox="0 0 141 72" fill="none" xmlns="http://www.w3.org/2000/svg">
<path id="Vector" d="M51.4932 70.3133C35.7482 69.1553 18.0562 64.5999 7.9918 51.5334C2.74262 44.6687 -0.593699 35.2624 4.33544 26.9867C6.44207 23.424 8.47827 20.0139 11.3533 16.991C14.7798 13.5747 19.3091 10.5748 23.6037 8.48456C38.0067 1.52687 55.1952 0.759692 72.2247 3.34343C97.9009 7.23368 123.511 18.6825 139.325 28.1091C139.63 28.2499 139.93 28.2029 140.147 27.9329C140.287 27.6277 140.241 27.3284 139.971 27.1113C124.004 17.6143 98.2414 6.09511 72.3774 2.21078C55.0839 -0.402232 37.6725 0.447162 23.0465 7.48706C18.5291 9.65951 13.8883 12.7005 10.3913 16.2694C7.44006 19.2572 5.33344 22.8198 3.1916 26.4588C-1.98985 35.0808 1.44022 45.0856 7.00026 52.279C17.223 65.6036 35.2963 70.335 51.3053 71.5223C51.6456 71.5867 51.8627 71.3167 51.9272 70.9763C52.0681 70.6712 51.8335 70.3778 51.4932 70.3133Z" fill="#957AEA"/>
</svg>
