<svg width="62" height="30" viewBox="0 0 62 30" fill="none" xmlns="http://www.w3.org/2000/svg">
<path id="Vector" d="M0.762751 24.0465C12.7879 28.8556 30.5683 31.4157 44.1673 26.4007C47.7343 25.0852 52.5099 22.7543 56.2062 19.5551C58.7702 17.4066 60.7593 14.9003 61.5752 12.1301C63.0426 7.34701 58.796 3.72137 55.3703 2.32554C49.2404 -0.225707 39.2969 0.275583 32.3034 5.00729C32.0453 5.1658 31.9455 5.58248 32.139 5.76436C32.2974 6.02253 32.7139 6.12219 32.8958 5.92849C39.5196 1.3964 49.0114 0.871745 54.8363 3.28222C56.3966 3.90976 58.1211 4.98325 59.259 6.52637C60.3557 7.958 61.0124 9.74183 60.3609 11.7549C59.5392 14.3372 57.6557 16.6146 55.3147 18.6809C51.6888 21.7275 47.0246 24.0174 43.5691 25.2917C30.2693 30.2597 12.7881 27.6526 0.991723 22.949C0.686698 22.8083 0.3523 22.9316 0.211456 23.2368C0.334591 23.5712 0.457726 23.9057 0.762751 24.0465Z" fill="#5C37CE"/>
</svg>
